
<svg width="48px" height="20px" viewBox="0 0 48 20" version="1.1" xmlns="http://www.w3.org/2000/svg" xmlns:xlink="http://www.w3.org/1999/xlink">
    <defs></defs>
    <g id="Page-1" stroke="none" stroke-width="1" fill="none" fill-rule="evenodd">
        <path d="M9.29,13.144 C9.29,15.048 8.253,16.136 6.366,16.136 C4.479,16.136 3.442,15.048 3.442,13.144 L3.442,12.209 C3.442,11.07 3.782,10.203 4.598,9.744 L4.598,9.71 C3.816,9.285 3.442,8.503 3.442,7.33 L3.442,6.956 C3.442,5.052 4.479,3.964 6.366,3.964 C8.253,3.964 9.29,5.052 9.29,6.956 L9.29,7.33 C9.29,8.503 8.899,9.285 8.134,9.71 L8.134,9.744 C8.95,10.203 9.29,11.07 9.29,12.209 L9.29,13.144 Z M5.312,13.093 C5.312,14.147 5.771,14.436 6.366,14.436 C6.961,14.436 7.403,14.147 7.42,13.093 L7.42,11.988 C7.42,11.053 7.029,10.645 6.366,10.645 C5.703,10.645 5.312,11.053 5.312,11.988 L5.312,13.093 Z M5.312,7.024 L5.312,7.687 C5.312,8.639 5.754,8.945 6.366,8.945 C6.961,8.945 7.42,8.639 7.42,7.687 L7.42,7.024 C7.42,5.953 6.961,5.664 6.366,5.664 C5.771,5.664 5.312,5.953 5.312,7.024 Z M12.129,6.837 L12.129,13.263 C12.129,14.113 12.503,14.436 13.098,14.436 C13.693,14.436 14.067,14.113 14.067,13.263 L14.067,6.837 C14.067,5.987 13.693,5.664 13.098,5.664 C12.503,5.664 12.129,5.987 12.129,6.837 Z M10.259,13.144 L10.259,6.956 C10.259,5.052 11.262,3.964 13.098,3.964 C14.934,3.964 15.937,5.052 15.937,6.956 L15.937,13.144 C15.937,15.048 14.934,16.136 13.098,16.136 C11.262,16.136 10.259,15.048 10.259,13.144 Z M19.779,16 L19.779,4.1 L22.737,4.1 C24.607,4.1 25.525,5.137 25.525,7.041 L25.525,13.059 C25.525,14.963 24.607,16 22.737,16 L19.779,16 Z M22.703,5.8 L21.649,5.8 L21.649,14.3 L22.703,14.3 C23.298,14.3 23.655,13.994 23.655,13.144 L23.655,6.956 C23.655,6.106 23.298,5.8 22.703,5.8 Z M30.846,4.1 L32.75,16 L30.863,16 L30.54,13.841 L28.245,13.841 L27.922,16 L26.205,16 L28.109,4.1 L30.846,4.1 Z M29.367,6.208 L28.483,12.226 L30.285,12.226 L29.401,6.208 L29.367,6.208 Z M34.535,16 L34.535,12.056 L32.172,4.1 L34.127,4.1 L35.538,9.523 L35.572,9.523 L36.983,4.1 L38.768,4.1 L36.405,12.056 L36.405,16 L34.535,16 Z M0,0 L48,0 L48,20 L0,20 L0,0 Z M39.159,6.956 C39.159,8.316 39.652,9.302 41.216,10.679 C42.44,11.75 42.814,12.396 42.814,13.263 C42.814,14.113 42.44,14.419 41.845,14.419 C41.25,14.419 40.876,14.113 40.876,13.263 L40.876,12.413 L39.108,12.413 L39.108,13.144 C39.108,15.048 40.06,16.136 41.896,16.136 C43.732,16.136 44.684,15.048 44.684,13.144 C44.684,11.784 44.191,10.798 42.627,9.421 C41.403,8.35 41.029,7.704 41.029,6.837 C41.029,5.987 41.369,5.664 41.964,5.664 C42.559,5.664 42.899,5.987 42.899,6.837 L42.899,7.33 L44.667,7.33 L44.667,6.956 C44.667,5.052 43.732,3.964 41.913,3.964 C40.094,3.964 39.159,5.052 39.159,6.956 Z" id="Combined-Shape" fill="#FFFFFF"></path>
    </g>
</svg>
