
<svg width="30px" height="30px" viewBox="0 0 155 156" version="1.1" xmlns="http://www.w3.org/2000/svg" xmlns:xlink="http://www.w3.org/1999/xlink">
    <!-- Generator: Sketch 51.3 (57544) - http://www.bohemiancoding.com/sketch -->
    <desc>Created with Sketch.</desc>
    <defs></defs>
    <g id="Page-1" stroke="none" stroke-width="1" fill="none" fill-rule="evenodd">
        <g id="Twitter-icon-circle-logo" fill="#cecece">
            <path d="M111.965,60.341 C111.992,61.101 112.007,61.877 112.007,62.656 C112.007,86.197 94.088,113.343 61.305,113.343 C51.24,113.343 41.873,110.408 33.987,105.336 C35.387,105.504 36.802,105.594 38.236,105.594 C46.594,105.594 54.269,102.748 60.373,97.965 C52.577,97.813 46.001,92.668 43.733,85.585 C44.812,85.799 45.923,85.905 47.081,85.905 C48.695,85.905 50.278,85.694 51.771,85.281 C43.623,83.651 37.472,76.452 37.472,67.818 C37.472,67.739 37.472,67.665 37.488,67.587 C39.877,68.928 42.637,69.72 45.561,69.809 C40.778,66.628 37.624,61.163 37.624,54.981 C37.624,51.722 38.509,48.662 40.033,46.027 C48.816,56.809 61.96,63.904 76.757,64.648 C76.453,63.339 76.301,61.986 76.301,60.583 C76.301,50.748 84.281,42.768 94.119,42.768 C99.249,42.768 103.876,44.932 107.119,48.385 C111.185,47.594 115.009,46.117 118.451,44.063 C117.11,48.233 114.292,51.722 110.608,53.929 C114.218,53.504 117.66,52.545 120.84,51.13 C118.467,54.693 115.434,57.827 111.965,60.341 Z M77.412,0.634 C34.732,0.634 0,35.37 0,78.05 C0,120.746 34.732,155.478 77.412,155.478 C120.108,155.478 154.844,120.746 154.844,78.05 C154.844,35.37 120.108,0.634 77.412,0.634 Z" id="Fill-9"></path>
        </g>
    </g>
</svg>
