<?xml version="1.0" standalone="no"?>
<!DOCTYPE svg PUBLIC "-//W3C//DTD SVG 20010904//EN"
 "http://www.w3.org/TR/2001/REC-SVG-20010904/DTD/svg10.dtd">
<svg version="1.0" xmlns="http://www.w3.org/2000/svg"
 width="300.000000pt" height="300.000000pt" viewBox="0 0 300.000000 300.000000"
 preserveAspectRatio="xMidYMid meet">
<metadata>
Created by potrace 1.11, written by Peter Selinger 2001-2013
</metadata>
<g transform="translate(0.000000,300.000000) scale(0.100000,-0.100000)"
fill="#000000" stroke="none">
<path d="M0 1500 l0 -1500 1500 0 1500 0 0 1500 0 1500 -1500 0 -1500 0 0
-1500z m1155 870 c83 -32 173 -123 204 -204 30 -82 44 -195 36 -299 -11 -145
-54 -240 -136 -302 l-38 -28 37 -27 c50 -36 89 -95 114 -172 18 -54 21 -89 22
-238 1 -183 -8 -241 -54 -330 -70 -136 -257 -215 -453 -190 -154 19 -258 85
-316 201 -45 91 -53 149 -49 348 5 219 19 265 107 352 l57 56 -53 49 c-81 74
-106 142 -111 310 -5 150 6 217 49 303 34 68 86 119 159 156 75 38 113 44 245
41 96 -2 132 -8 180 -26z m1029 -14 c125 -61 186 -159 207 -333 6 -50 9 -284
6 -595 -4 -548 -5 -555 -57 -658 -70 -140 -250 -216 -447 -189 -170 23 -267
101 -325 261 -23 62 -23 70 -26 593 -4 602 0 657 55 766 72 144 187 201 395
196 111 -3 119 -5 192 -41z"/>
<path d="M884 2132 c-66 -32 -79 -69 -79 -237 0 -154 9 -186 65 -219 39 -23
136 -21 176 3 54 33 68 79 68 221 0 137 -14 185 -64 222 -38 28 -116 33 -166
10z"/>
<path d="M883 1380 c-69 -36 -78 -65 -78 -270 0 -198 9 -228 75 -263 45 -23
130 -18 168 10 56 41 67 82 67 258 -1 146 -3 164 -23 202 -28 53 -60 75 -120
80 -34 3 -58 -2 -89 -17z"/>
<path d="M1900 2132 c-19 -9 -43 -33 -55 -52 -19 -34 -20 -50 -20 -590 0 -515
1 -557 18 -588 53 -97 203 -95 252 3 19 39 20 60 20 585 0 531 -1 546 -21 585
-23 46 -72 75 -124 75 -19 0 -51 -8 -70 -18z"/>
</g>
</svg>
